<svg width="15" height="15" viewBox="0 0 15 15" fill="none" xmlns="http://www.w3.org/2000/svg">
  <path d="M1.45853 0.250245C1.12487 -0.083415 0.583905 -0.083415 0.250245 0.250245C-0.083415 0.583905 -0.083415 1.12487 0.250245 1.45853L6.29171 7.5L0.250245 13.5415C-0.083415 13.8751 -0.083415 14.4161 0.250245 14.7498C0.583905 15.0834 1.12487 15.0834 1.45853 14.7498L7.5 8.70829L13.5414 14.7497C13.8751 15.0834 14.4161 15.0834 14.7497 14.7497C15.0834 14.4161 15.0834 13.8751 14.7497 13.5414L8.70829 7.5L14.7497 1.45857C15.0834 1.12492 15.0834 0.583945 14.7497 0.250285C14.4161 -0.0833745 13.8751 -0.0833745 13.5414 0.250285L7.5 6.29171L1.45853 0.250245Z" fill="black"/>
</svg>