<svg width="21" height="9" viewBox="0 0 21 9" fill="none" xmlns="http://www.w3.org/2000/svg">
  <path d="M15.225 6.1875H5.775V7.3125H15.225V6.1875Z" fill="white"/>
  <path d="M1.575 1.6875H2.625V2.8125H1.575V1.6875Z" fill="white"/>
  <path d="M11.025 1.6875H9.975V2.8125H11.025V1.6875Z" fill="white"/>
  <path d="M5.775 1.6875H6.825V2.8125H5.775V1.6875Z" fill="white"/>
  <path d="M15.225 1.6875H14.175V2.8125H15.225V1.6875Z" fill="white"/>
  <path d="M3.675 1.6875H4.725V2.8125H3.675V1.6875Z" fill="white"/>
  <path d="M13.125 1.6875H12.075V2.8125H13.125V1.6875Z" fill="white"/>
  <path d="M7.875 1.6875H8.925V2.8125H7.875V1.6875Z" fill="white"/>
  <path d="M17.325 1.6875H16.275V2.8125H17.325V1.6875Z" fill="white"/>
  <path d="M18.375 1.6875H19.425V2.8125H18.375V1.6875Z" fill="white"/>
  <path d="M2.625 3.9375H1.575V5.0625H2.625V3.9375Z" fill="white"/>
  <path d="M9.975 3.9375H11.025V5.0625H9.975V3.9375Z" fill="white"/>
  <path d="M6.825 3.9375H5.775V5.0625H6.825V3.9375Z" fill="white"/>
  <path d="M14.175 3.9375H15.225V5.0625H14.175V3.9375Z" fill="white"/>
  <path d="M4.725 3.9375H3.675V5.0625H4.725V3.9375Z" fill="white"/>
  <path d="M12.075 3.9375H13.125V5.0625H12.075V3.9375Z" fill="white"/>
  <path d="M8.925 3.9375H7.875V5.0625H8.925V3.9375Z" fill="white"/>
  <path d="M16.275 3.9375H17.325V5.0625H16.275V3.9375Z" fill="white"/>
  <path d="M19.425 3.9375H18.375V5.0625H19.425V3.9375Z" fill="white"/>
  <path d="M16.275 6.1875H17.325V7.3125H16.275V6.1875Z" fill="white"/>
  <path d="M19.425 6.1875H18.375V7.3125H19.425V6.1875Z" fill="white"/>
  <path d="M1.575 6.1875H2.625V7.3125H1.575V6.1875Z" fill="white"/>
  <path d="M4.725 6.1875H3.675V7.3125H4.725V6.1875Z" fill="white"/>
  <path fill-rule="evenodd" clip-rule="evenodd" d="M0 1.6875C0 0.75552 0.705152 0 1.575 0H19.425C20.2948 0 21 0.75552 21 1.6875V7.3125C21 8.24448 20.2948 9 19.425 9H1.575C0.705151 9 0 8.24448 0 7.3125V1.6875ZM1.575 0.5625H19.425C20.0049 0.5625 20.475 1.06618 20.475 1.6875V7.3125C20.475 7.93382 20.0049 8.4375 19.425 8.4375H1.575C0.995101 8.4375 0.525 7.93382 0.525 7.3125V1.6875C0.525 1.06618 0.995101 0.5625 1.575 0.5625Z" fill="white"/>
</svg>