<svg width="38" height="32" viewBox="0 0 38 32" fill="none" xmlns="http://www.w3.org/2000/svg">
  <g clip-path="url(#clip0_1223_343)">
    <path d="M37.8434 27.5904L30.0584 10.5461V9.74944L35.9497 7.26885C36.2171 7.15564 36.3863 6.92514 36.3863 6.67336C36.3863 6.42157 36.2171 6.19108 35.9497 6.07786L29.6218 3.41343C29.3765 3.31083 29.0839 3.32419 28.8529 3.4414C28.6188 3.56399 28.4764 3.77843 28.4764 4.00892V9.33773V10.0039H8.70146C8.37398 10.0039 8.07973 10.173 7.96264 10.4302L0.0527125 27.7488C-0.04065 27.954 -0.00898537 28.1845 0.139697 28.3656C0.286823 28.5468 0.530426 28.6547 0.791455 28.6547H37.1774C37.1884 28.656 37.2011 28.656 37.209 28.6547C37.6457 28.6547 38.0001 28.3563 38.0001 27.9886C38 27.8395 37.943 27.7009 37.8434 27.5904ZM30.0584 5.0867L33.8267 6.67336L30.0584 8.26002V5.0867V5.0867ZM1.94317 27.3225L9.24569 11.336H28.1157L20.8148 27.3225H1.94317ZM28.4764 27.3225H22.5092L28.4764 14.2576V27.3225ZM30.0584 27.3225V14.2576L36.0257 27.3225H30.0584Z" fill="white"/>
  </g>
  <defs>
    <clipPath id="clip0_1223_343">
      <rect width="38" height="32" fill="white"/>
    </clipPath>
  </defs>
</svg>