<svg width="39" height="47" viewBox="0 0 39 47" fill="none" xmlns="http://www.w3.org/2000/svg">
  <path d="M19.492 0C8.56283 0 0 3.85358 0 8.77142C0 13.6893 8.56283 17.5428 19.492 17.5428C30.4212 17.5428 38.984 13.6893 38.984 8.77142C38.984 3.85358 30.4212 0 19.492 0ZM19.492 15.5937C9.15344 15.5937 1.94918 11.9974 1.94918 8.77142C1.94918 5.54546 9.15344 1.94917 19.492 1.94917C29.8306 1.94917 37.0349 5.54546 37.0349 8.77142C37.0349 11.9974 29.8306 15.5937 19.492 15.5937Z" fill="white"/>
  <path d="M38.0213 17.543C37.4833 17.543 37.0467 17.9796 37.0467 18.5176C37.0467 21.7436 29.8424 25.3399 19.5038 25.3399C9.16525 25.3399 1.96099 21.7436 1.96099 18.5176C1.96099 17.9796 1.52433 17.543 0.986352 17.543C0.448371 17.543 0.0117188 17.9796 0.0117188 18.5176C0.0117188 23.4354 8.57455 27.289 19.5037 27.289C30.4329 27.289 38.9958 23.4354 38.9958 18.5176C38.9959 17.9796 38.5593 17.543 38.0213 17.543Z" fill="white"/>
  <path d="M38.0213 27.289C37.4833 27.289 37.0467 27.7257 37.0467 28.2637C37.0467 31.4895 29.8424 35.0858 19.5038 35.0858C9.16525 35.0858 1.96099 31.4895 1.96099 28.2636C1.96099 27.7256 1.52433 27.2889 0.986352 27.2889C0.448371 27.2889 0.0117188 27.7256 0.0117188 28.2636C0.0117188 33.1814 8.57455 37.035 19.5037 37.035C30.4329 37.035 38.9958 33.1814 38.9958 28.2636C38.9959 27.7256 38.5593 27.289 38.0213 27.289Z" fill="white"/>
  <path d="M38.0095 7.79685C37.4715 7.79685 37.0349 8.2335 37.0349 8.77149V38.0096C37.0349 41.2355 29.8306 44.8318 19.492 44.8318C9.15344 44.8318 1.94918 41.2355 1.94918 38.0096V8.77149C1.94918 8.2335 1.51252 7.79685 0.974542 7.79685C0.436561 7.79685 0 8.2335 0 8.77149V38.0096C0 42.9274 8.56283 46.781 19.492 46.781C30.4212 46.781 38.984 42.9274 38.984 38.0096V8.77149C38.984 8.2335 38.5475 7.79685 38.0095 7.79685Z" fill="white"/>
</svg>