<svg width="16" height="18" viewBox="0 0 16 18" fill="#73D597" xmlns="http://www.w3.org/2000/svg">
<path d="M7.49999 0C3.29474 0 0 1.48275 0 3.375C0 5.26725 3.29474 6.75 7.49999 6.75C11.7052 6.75 15 5.26725 15 3.375C15 1.48275 11.7052 0 7.49999 0ZM7.49999 6.00001C3.52199 6.00001 0.749988 4.61626 0.749988 3.375C0.749988 2.13374 3.52199 0.749988 7.49999 0.749988C11.478 0.749988 14.25 2.13374 14.25 3.375C14.25 4.61626 11.478 6.00001 7.49999 6.00001Z" fill="#73d597"/>
<path d="M14.6289 6.75C14.4219 6.75 14.2539 6.91801 14.2539 7.12501C14.2539 8.36627 11.4819 9.75002 7.50393 9.75002C3.52593 9.75002 0.75393 8.36627 0.75393 7.12501C0.75393 6.91801 0.585918 6.75 0.378918 6.75C0.171918 6.75 0.00390625 6.91801 0.00390625 7.12501C0.00390625 9.01726 3.29864 10.5 7.5039 10.5C11.7091 10.5 15.0039 9.01726 15.0039 7.12501C15.0039 6.91801 14.8359 6.75 14.6289 6.75Z" fill="#73d597"/>
<path d="M14.6289 10.5C14.4219 10.5 14.2539 10.668 14.2539 10.875C14.2539 12.1162 11.4819 13.5 7.50393 13.5C3.52593 13.5 0.75393 12.1162 0.75393 10.875C0.75393 10.668 0.585918 10.5 0.378918 10.5C0.171918 10.5 0.00390625 10.668 0.00390625 10.875C0.00390625 12.7672 3.29864 14.25 7.5039 14.25C11.7091 14.25 15.0039 12.7672 15.0039 10.875C15.0039 10.668 14.8359 10.5 14.6289 10.5Z" fill="#73d597"/>
<path d="M14.625 2.99998C14.418 2.99998 14.25 3.168 14.25 3.375V14.625C14.25 15.8663 11.478 17.25 7.49999 17.25C3.52199 17.25 0.749988 15.8663 0.749988 14.625V3.375C0.749988 3.168 0.581977 2.99998 0.374977 2.99998C0.167977 2.99998 0 3.168 0 3.375V14.625C0 16.5172 3.29474 18 7.49999 18C11.7052 18 15 16.5172 15 14.625V3.375C15 3.168 14.832 2.99998 14.625 2.99998Z" fill="#73d597"/>
</svg> 