<svg width="21" height="21" viewBox="0 0 21 21" fill="none" xmlns="http://www.w3.org/2000/svg">
  <path d="M20.9451 7.60387C20.8068 7.17865 20.4296 6.87759 19.9852 6.83738L13.9231 6.28702L11.5273 0.67805C11.3505 0.265965 10.948 0 10.5 0C10.052 0 9.64941 0.265965 9.47365 0.67805L7.07788 6.28702L1.01484 6.83738C0.570395 6.87839 0.194039 7.17945 0.0549681 7.60387C-0.0833016 8.02909 0.0443935 8.49549 0.380535 8.7903L4.96298 12.8084L3.61185 18.7593C3.51299 19.1969 3.68282 19.6493 4.04588 19.9118C4.24103 20.0536 4.4703 20.1244 4.70038 20.1244C4.89809 20.1244 5.09596 20.0718 5.27268 19.9661L10.5 16.8405L15.7264 19.9661C16.1098 20.1952 16.5919 20.1742 16.9541 19.9118C17.3172 19.6493 17.487 19.1969 17.3882 18.7593L16.037 12.8084L20.6195 8.7903C20.9555 8.49549 21.0833 8.03005 20.9451 7.60387Z" fill="#73D597"/>
</svg>